<svg width="212" height="49" viewBox="0 0 212 49" fill="none" xmlns="http://www.w3.org/2000/svg">
<path d="M26 38.5L18 34.5M18 34.5L6 40.5V14.5L18 8.5M18 34.5V8.5M18 8.5L30 14.5M30 14.5L42 8.5V25.5M30 14.5V29.5M38 32.5L34 38.5H42L38 44.5" stroke="#0582CA" stroke-width="2.28571" stroke-linecap="round" stroke-linejoin="round"/>
<path d="M78.96 15.6526V34H75.28V22.0663L70.3645 34H67.5783L62.6365 22.0663V34H58.9565V15.6526H63.136L68.9714 29.2949L74.8068 15.6526H78.96ZM81.652 26.6663C81.652 25.1943 81.9411 23.8888 82.5194 22.7497C83.1152 21.6107 83.9126 20.7345 84.9114 20.1211C85.9278 19.5078 87.0581 19.2011 88.3023 19.2011C89.3888 19.2011 90.335 19.4202 91.1411 19.8583C91.9648 20.2964 92.6219 20.8484 93.1126 21.5143V19.4377H96.8188V34H93.1126V31.8709C92.6394 32.5543 91.9823 33.1238 91.1411 33.5794C90.3175 34.0175 89.3625 34.2366 88.276 34.2366C87.0493 34.2366 85.9278 33.9211 84.9114 33.2903C83.9126 32.6594 83.1152 31.7745 82.5194 30.6354C81.9411 29.4789 81.652 28.1558 81.652 26.6663ZM93.1126 26.7189C93.1126 25.8251 92.9373 25.0629 92.5868 24.432C92.2364 23.7836 91.7632 23.293 91.1674 22.96C90.5716 22.6095 89.932 22.4343 89.2486 22.4343C88.5651 22.4343 87.9343 22.6008 87.356 22.9337C86.7777 23.2667 86.3046 23.7573 85.9366 24.4057C85.5861 25.0366 85.4108 25.7901 85.4108 26.6663C85.4108 27.5425 85.5861 28.3135 85.9366 28.9794C86.3046 29.6278 86.7777 30.1272 87.356 30.4777C87.9518 30.8282 88.5827 31.0034 89.2486 31.0034C89.932 31.0034 90.5716 30.837 91.1674 30.504C91.7632 30.1535 92.2364 29.6629 92.5868 29.032C92.9373 28.3836 93.1126 27.6126 93.1126 26.7189ZM104.093 21.5406C104.566 20.8747 105.215 20.3227 106.038 19.8846C106.879 19.429 107.834 19.2011 108.903 19.2011C110.147 19.2011 111.269 19.5078 112.268 20.1211C113.284 20.7345 114.082 21.6107 114.66 22.7497C115.256 23.8712 115.554 25.1768 115.554 26.6663C115.554 28.1558 115.256 29.4789 114.66 30.6354C114.082 31.7745 113.284 32.6594 112.268 33.2903C111.269 33.9211 110.147 34.2366 108.903 34.2366C107.834 34.2366 106.888 34.0175 106.064 33.5794C105.258 33.1413 104.601 32.5893 104.093 31.9234V40.9394H100.413V19.4377H104.093V21.5406ZM111.795 26.6663C111.795 25.7901 111.611 25.0366 111.243 24.4057C110.892 23.7573 110.419 23.2667 109.823 22.9337C109.245 22.6008 108.614 22.4343 107.931 22.4343C107.265 22.4343 106.634 22.6095 106.038 22.96C105.46 23.293 104.987 23.7836 104.619 24.432C104.268 25.0804 104.093 25.8427 104.093 26.7189C104.093 27.595 104.268 28.3573 104.619 29.0057C104.987 29.6541 105.46 30.1535 106.038 30.504C106.634 30.837 107.265 31.0034 107.931 31.0034C108.614 31.0034 109.245 30.8282 109.823 30.4777C110.419 30.1272 110.892 29.6278 111.243 28.9794C111.611 28.331 111.795 27.56 111.795 26.6663ZM124.563 34.184C123.283 34.184 122.127 33.965 121.093 33.5269C120.077 33.0888 119.27 32.4579 118.675 31.6343C118.079 30.8107 117.772 29.8381 117.755 28.7166H121.697C121.75 29.4701 122.013 30.0659 122.486 30.504C122.977 30.9421 123.643 31.1611 124.484 31.1611C125.342 31.1611 126.017 30.9596 126.508 30.5566C126.998 30.136 127.244 29.5928 127.244 28.9269C127.244 28.3836 127.077 27.9368 126.744 27.5863C126.411 27.2358 125.991 26.9642 125.483 26.7714C124.992 26.5611 124.309 26.3333 123.432 26.088C122.241 25.7375 121.268 25.3958 120.515 25.0629C119.779 24.7124 119.139 24.1954 118.596 23.512C118.07 22.811 117.807 21.8823 117.807 20.7257C117.807 19.6392 118.079 18.693 118.622 17.8869C119.165 17.0808 119.928 16.4674 120.909 16.0469C121.89 15.6088 123.012 15.3897 124.273 15.3897C126.166 15.3897 127.699 15.8541 128.873 16.7829C130.065 17.6941 130.722 18.9733 130.845 20.6206H126.797C126.762 19.9897 126.49 19.4728 125.982 19.0697C125.491 18.6491 124.834 18.4389 124.011 18.4389C123.292 18.4389 122.714 18.6229 122.276 18.9909C121.855 19.3589 121.645 19.8933 121.645 20.5943C121.645 21.085 121.803 21.4968 122.118 21.8297C122.451 22.1451 122.854 22.408 123.327 22.6183C123.818 22.811 124.501 23.0389 125.377 23.3017C126.569 23.6522 127.542 24.0027 128.295 24.3531C129.049 24.7036 129.697 25.2293 130.24 25.9303C130.784 26.6312 131.055 27.5512 131.055 28.6903C131.055 29.6716 130.801 30.5829 130.293 31.424C129.785 32.2651 129.04 32.9398 128.059 33.448C127.077 33.9387 125.912 34.184 124.563 34.184ZM147.783 26.4034C147.783 26.9291 147.748 27.4023 147.678 27.8229H137.032C137.12 28.8743 137.488 29.6979 138.136 30.2937C138.784 30.8895 139.582 31.1874 140.528 31.1874C141.895 31.1874 142.867 30.6004 143.446 29.4263H147.415C146.994 30.8282 146.188 31.9848 144.996 32.896C143.805 33.7897 142.342 34.2366 140.607 34.2366C139.205 34.2366 137.943 33.9299 136.822 33.3166C135.718 32.6857 134.85 31.8008 134.219 30.6617C133.606 29.5227 133.299 28.2084 133.299 26.7189C133.299 25.2118 133.606 23.8888 134.219 22.7497C134.833 21.6107 135.691 20.7345 136.795 20.1211C137.899 19.5078 139.17 19.2011 140.607 19.2011C141.991 19.2011 143.227 19.499 144.313 20.0949C145.417 20.6907 146.267 21.5406 146.863 22.6446C147.476 23.731 147.783 24.984 147.783 26.4034ZM143.971 25.352C143.954 24.4057 143.612 23.6522 142.946 23.0914C142.28 22.5131 141.465 22.224 140.502 22.224C139.59 22.224 138.819 22.5044 138.188 23.0651C137.575 23.6084 137.198 24.3707 137.058 25.352H143.971ZM149.523 26.6663C149.523 25.1943 149.812 23.8888 150.39 22.7497C150.986 21.6107 151.783 20.7345 152.782 20.1211C153.798 19.5078 154.929 19.2011 156.173 19.2011C157.259 19.2011 158.206 19.4202 159.012 19.8583C159.835 20.2964 160.492 20.8484 160.983 21.5143V19.4377H164.689V34H160.983V31.8709C160.51 32.5543 159.853 33.1238 159.012 33.5794C158.188 34.0175 157.233 34.2366 156.147 34.2366C154.92 34.2366 153.798 33.9211 152.782 33.2903C151.783 32.6594 150.986 31.7745 150.39 30.6354C149.812 29.4789 149.523 28.1558 149.523 26.6663ZM160.983 26.7189C160.983 25.8251 160.808 25.0629 160.457 24.432C160.107 23.7836 159.634 23.293 159.038 22.96C158.442 22.6095 157.803 22.4343 157.119 22.4343C156.436 22.4343 155.805 22.6008 155.227 22.9337C154.648 23.2667 154.175 23.7573 153.807 24.4057C153.457 25.0366 153.281 25.7901 153.281 26.6663C153.281 27.5425 153.457 28.3135 153.807 28.9794C154.175 29.6278 154.648 30.1272 155.227 30.4777C155.822 30.8282 156.453 31.0034 157.119 31.0034C157.803 31.0034 158.442 30.837 159.038 30.504C159.634 30.1535 160.107 29.6629 160.457 29.032C160.808 28.3836 160.983 27.6126 160.983 26.7189ZM171.964 21.6983C172.437 20.9272 173.05 20.3227 173.804 19.8846C174.575 19.4465 175.451 19.2274 176.432 19.2274V23.0914H175.46C174.303 23.0914 173.427 23.363 172.831 23.9063C172.253 24.4495 171.964 25.3958 171.964 26.7451V34H168.284V19.4377H171.964V21.6983ZM177.964 26.7189C177.964 25.2118 178.271 23.8975 178.884 22.776C179.498 21.637 180.348 20.7608 181.434 20.1474C182.521 19.5166 183.765 19.2011 185.167 19.2011C186.972 19.2011 188.461 19.6568 189.635 20.568C190.827 21.4617 191.624 22.7234 192.027 24.3531H188.058C187.848 23.7223 187.489 23.2316 186.98 22.8811C186.49 22.5131 185.876 22.3291 185.14 22.3291C184.089 22.3291 183.257 22.7147 182.643 23.4857C182.03 24.2392 181.723 25.317 181.723 26.7189C181.723 28.1032 182.03 29.181 182.643 29.952C183.257 30.7055 184.089 31.0823 185.14 31.0823C186.63 31.0823 187.603 30.4164 188.058 29.0846H192.027C191.624 30.6617 190.827 31.9147 189.635 32.8434C188.444 33.7722 186.954 34.2366 185.167 34.2366C183.765 34.2366 182.521 33.9299 181.434 33.3166C180.348 32.6857 179.498 31.8095 178.884 30.688C178.271 29.549 177.964 28.2259 177.964 26.7189ZM202.924 19.2274C204.028 19.2274 205.01 19.4728 205.868 19.9634C206.727 20.4366 207.393 21.1463 207.866 22.0926C208.357 23.0213 208.602 24.1429 208.602 25.4571V34H204.922V25.9566C204.922 24.8 204.633 23.915 204.055 23.3017C203.476 22.6709 202.688 22.3554 201.689 22.3554C200.673 22.3554 199.867 22.6709 199.271 23.3017C198.692 23.915 198.403 24.8 198.403 25.9566V34H194.723V14.5486H198.403V21.2514C198.876 20.6206 199.507 20.1299 200.296 19.7794C201.084 19.4114 201.961 19.2274 202.924 19.2274Z" fill="#0582CA"/>
</svg>
